<?xml version="1.0"?>
<svg xmlns="http://www.w3.org/2000/svg" xmlns:xlink="http://www.w3.org/1999/xlink" xmlns:svgjs="http://svgjs.com/svgjs" version="1.1" width="39.481" height="39.481" x="0" y="0" viewBox="0 0 512 512" style="enable-background:new 0 0 512 512" xml:space="preserve" class=""><g><g xmlns="http://www.w3.org/2000/svg"><path d="m390.969 150h-270v30h-30v30h30v302h270v-302h30v-30h-30zm-180 302h-30v-242h30zm60 0h-30v-242h30zm60 0h-30v-242h30z" fill="#9d9090" data-original="#000000" style="" class=""/><path d="m389.451 90c-6.969-34.191-37.266-60-73.482-60h-45v-30h-30v30h-45c-36.216 0-66.513 25.809-73.482 60h-31.518v30c3.13 0 335.306 0 330 0v-30z" fill="#9d9090" data-original="#000000" style="" class=""/></g></g></svg>
